<?xml version="1.0" encoding="utf-8"?>
<!-- Generator: Adobe Illustrator 17.0.0, SVG Export Plug-In . SVG Version: 6.00 Build 0)  -->
<!DOCTYPE svg PUBLIC "-//W3C//DTD SVG 1.1//EN" "http://www.w3.org/Graphics/SVG/1.1/DTD/svg11.dtd">
<svg version="1.1" id="Layer_1" xmlns="http://www.w3.org/2000/svg" xmlns:xlink="http://www.w3.org/1999/xlink" x="0px" y="0px"
	 width="370px" height="360px" viewBox="0 0 370 360" enable-background="new 0 0 370 360" xml:space="preserve">
<rect fill="#333333" width="370" height="360"/>
<polygon opacity="0.25" points="370,138 291,59 78,272 165.7,360 370,360 "/>
<path fill="#1ABC79" d="M293,266c0,4.4-3.6,8-8,8H84c-4.4,0-8-3.6-8-8V65c0-4.4,3.6-8,8-8h201c4.4,0,8,3.6,8,8V266z"/>
<g>
	<defs>
		<path id="SVGID_1_" d="M293,266c0,4.9-3,8-8,8H84.9c-4.9,0-8.9-4-8.9-8.9V65.9c0-4.9,4-8.9,8.9-8.9H284c4.9,0,8.9,4,8.9,8.9V266z"
			/>
	</defs>
	<clipPath id="SVGID_2_">
		<use xlink:href="#SVGID_1_"  overflow="visible"/>
	</clipPath>
	<polygon opacity="0.25" clip-path="url(#SVGID_2_)" points="219.9,101.9 217.7,109.2 209,98.7 180.1,95.4 159.7,103.6 146.5,121.1 
		146.5,145.4 165.2,180.2 166.5,194.8 162.6,200.1 170.1,207.6 188.9,207.6 187.5,212.5 166.5,213.2 173.7,220.4 185.1,220.4 
		183.7,225.4 167.3,227.1 174.5,234.3 181.1,234.3 179,241.4 212.4,274.8 295.2,274.8 295.2,177.2 	"/>
</g>
<path id="light-bulb-6-icon" fill="#D1EDDF" d="M202.5,207.1h-32.7c-2.3,0-4.1,1.9-4.1,4.1c0,2.3,1.9,4.1,4.1,4.1h32.7
	c2.3,0,4.1-1.9,4.1-4.1C206.7,208.9,204.8,207.1,202.5,207.1z M201.8,220.9h-31.2c-2.3,0-4.1,1.9-4.1,4.1c0,2.3,1.9,4.1,4.1,4.1
	h31.2c2.3,0,4.1-1.9,4.1-4.1C205.9,222.7,204.1,220.9,201.8,220.9z M170.8,234.5c8.1,7.5,8.9,9,12.1,9h6.2c3.2,0,3.9-1.4,12.4-9
	H170.8z M233.4,135.1c0,28.1-24.2,43.8-24.2,66h-11c0-27.3,24-41.7,24-66c0-45.5-72.1-45.5-72.1,0c0,24.3,23.5,38,24.1,66h-11.1
	c0-22.2-24.2-37.9-24.2-66C138.9,74.7,233.4,74.6,233.4,135.1z M207.6,123.5c-3.1,1.8-5.5,4.6-6.8,8.4c-3.6,10.3,2.4,18.7-1.5,28.4
	c-2.3,5.6-7.1,8.5-12.1,9c-1,9.9,0.4,23.7,3.5,31.7h-7.1c-3.7-14.9-1.7-41.3,6.6-56.1c-5,3.9-10,14.4-11.5,22.8
	C161.1,157.3,174.4,123.5,207.6,123.5z"/>
</svg>
